<mxfile host="app.diagrams.net" modified="2022-10-05T10:12:27.870Z" agent="5.0 (Windows NT 10.0; Win64; x64) AppleWebKit/537.36 (KHTML, like Gecko) Chrome/105.0.0.0 Safari/537.36" etag="J9cIyBQvKJTskJDlKNfB" version="20.4.0" type="github">
  <diagram name="Page-1" id="c7558073-3199-34d8-9f00-42111426c3f3">
    <mxGraphModel dx="1018" dy="1126" grid="1" gridSize="10" guides="1" tooltips="1" connect="1" arrows="1" fold="1" page="1" pageScale="1" pageWidth="826" pageHeight="1169" background="none" math="0" shadow="0">
      <root>
        <mxCell id="0" />
        <mxCell id="1" parent="0" />
        <mxCell id="G2MfITW1tv8A5X6NfV0P-102" value="" style="edgeStyle=orthogonalEdgeStyle;rounded=0;orthogonalLoop=1;jettySize=auto;html=1;fontSize=18;" edge="1" parent="1" source="G2MfITW1tv8A5X6NfV0P-96" target="G2MfITW1tv8A5X6NfV0P-101">
          <mxGeometry relative="1" as="geometry">
            <Array as="points">
              <mxPoint x="400" y="510" />
            </Array>
          </mxGeometry>
        </mxCell>
        <mxCell id="G2MfITW1tv8A5X6NfV0P-96" value="&lt;font style=&quot;font-size: 18px;&quot;&gt;Integrated Modeling Framework&lt;/font&gt;" style="ellipse;whiteSpace=wrap;html=1;fillColor=#ffe6cc;strokeColor=#d79b00;" vertex="1" parent="1">
          <mxGeometry x="340" y="290" width="120" height="80" as="geometry" />
        </mxCell>
        <mxCell id="G2MfITW1tv8A5X6NfV0P-99" value="&lt;font style=&quot;font-size: 18px;&quot;&gt;output file&lt;/font&gt;" style="whiteSpace=wrap;html=1;fillColor=#ffe6cc;strokeColor=#d79b00;" vertex="1" parent="1">
          <mxGeometry x="540" y="300" width="120" height="60" as="geometry" />
        </mxCell>
        <mxCell id="G2MfITW1tv8A5X6NfV0P-104" value="" style="edgeStyle=orthogonalEdgeStyle;rounded=0;orthogonalLoop=1;jettySize=auto;html=1;fontSize=18;" edge="1" parent="1" source="G2MfITW1tv8A5X6NfV0P-101" target="G2MfITW1tv8A5X6NfV0P-103">
          <mxGeometry relative="1" as="geometry" />
        </mxCell>
        <mxCell id="G2MfITW1tv8A5X6NfV0P-106" value="" style="edgeStyle=orthogonalEdgeStyle;rounded=0;orthogonalLoop=1;jettySize=auto;html=1;fontSize=18;" edge="1" parent="1" source="G2MfITW1tv8A5X6NfV0P-101" target="G2MfITW1tv8A5X6NfV0P-105">
          <mxGeometry relative="1" as="geometry">
            <Array as="points">
              <mxPoint x="630" y="510" />
              <mxPoint x="630" y="610" />
            </Array>
          </mxGeometry>
        </mxCell>
        <mxCell id="G2MfITW1tv8A5X6NfV0P-108" value="" style="edgeStyle=orthogonalEdgeStyle;rounded=0;orthogonalLoop=1;jettySize=auto;html=1;fontSize=18;" edge="1" parent="1" source="G2MfITW1tv8A5X6NfV0P-101" target="G2MfITW1tv8A5X6NfV0P-107">
          <mxGeometry relative="1" as="geometry">
            <Array as="points">
              <mxPoint x="630" y="510" />
              <mxPoint x="630" y="420" />
            </Array>
          </mxGeometry>
        </mxCell>
        <mxCell id="G2MfITW1tv8A5X6NfV0P-101" value="&lt;font style=&quot;font-size: 18px;&quot;&gt;core transport&lt;/font&gt;" style="whiteSpace=wrap;html=1;fillColor=#ffe6cc;strokeColor=#d79b00;" vertex="1" parent="1">
          <mxGeometry x="460" y="480" width="120" height="60" as="geometry" />
        </mxCell>
        <mxCell id="G2MfITW1tv8A5X6NfV0P-103" value="&lt;font style=&quot;font-size: 18px;&quot;&gt;Toroidal Velocity&lt;/font&gt;" style="whiteSpace=wrap;html=1;fillColor=#ffe6cc;strokeColor=#d79b00;" vertex="1" parent="1">
          <mxGeometry x="660" y="480" width="120" height="60" as="geometry" />
        </mxCell>
        <mxCell id="G2MfITW1tv8A5X6NfV0P-105" value="&lt;span style=&quot;font-size: 18px;&quot;&gt;Edge Model&lt;/span&gt;" style="whiteSpace=wrap;html=1;fillColor=#ffe6cc;strokeColor=#d79b00;" vertex="1" parent="1">
          <mxGeometry x="660" y="580" width="120" height="60" as="geometry" />
        </mxCell>
        <mxCell id="G2MfITW1tv8A5X6NfV0P-107" value="&lt;font style=&quot;font-size: 18px;&quot;&gt;Pedestal Models&lt;/font&gt;" style="whiteSpace=wrap;html=1;fillColor=#ffe6cc;strokeColor=#d79b00;" vertex="1" parent="1">
          <mxGeometry x="660" y="390" width="120" height="60" as="geometry" />
        </mxCell>
        <mxCell id="G2MfITW1tv8A5X6NfV0P-109" value="" style="shape=flexArrow;endArrow=classic;html=1;rounded=0;fontSize=18;entryX=0;entryY=0.5;entryDx=0;entryDy=0;exitX=1;exitY=0.5;exitDx=0;exitDy=0;" edge="1" parent="1" source="G2MfITW1tv8A5X6NfV0P-96" target="G2MfITW1tv8A5X6NfV0P-99">
          <mxGeometry width="50" height="50" relative="1" as="geometry">
            <mxPoint x="380" y="310" as="sourcePoint" />
            <mxPoint x="430" y="260" as="targetPoint" />
          </mxGeometry>
        </mxCell>
        <mxCell id="G2MfITW1tv8A5X6NfV0P-110" value="" style="shape=flexArrow;endArrow=classic;html=1;rounded=0;fontSize=18;entryX=0;entryY=0.5;entryDx=0;entryDy=0;exitX=1;exitY=0.5;exitDx=0;exitDy=0;endWidth=8;endSize=5.4;width=14;" edge="1" parent="1" source="G2MfITW1tv8A5X6NfV0P-111" target="G2MfITW1tv8A5X6NfV0P-96">
          <mxGeometry width="50" height="50" relative="1" as="geometry">
            <mxPoint x="230" y="329" as="sourcePoint" />
            <mxPoint x="310" y="329" as="targetPoint" />
          </mxGeometry>
        </mxCell>
        <mxCell id="G2MfITW1tv8A5X6NfV0P-111" value="&lt;font style=&quot;font-size: 18px;&quot;&gt;Input file&lt;/font&gt;" style="whiteSpace=wrap;html=1;fillColor=#ffe6cc;strokeColor=#d79b00;" vertex="1" parent="1">
          <mxGeometry x="110" y="300" width="120" height="60" as="geometry" />
        </mxCell>
      </root>
    </mxGraphModel>
  </diagram>
</mxfile>
